# xmcd
#
# Track frame offsets:
#	180
#	14341
#	25858
#	41998
#	56811
#	69012
#	82706
#	97930
#	111762
#	126012
#	147223
#	163000
#	177602
#	194646
#
# Disc length: 2896 seconds
#
# Revision: 2
# Processed by: cddbd v1.5.2PL0 Copyright (c) Steve Scherf et al.
# Submitted via: audiograbber 1.83.01
#
DISCID=ba0b4e0e
DTITLE=Various Artist - Nothing But The Hits
DYEAR=1992
DGENRE=Country
TTITLE0=Dwight Yoakam - Guitars, Cadillacs
TTITLE1=Travis Tritt - Here's A Quarter (Call Someone Who Cares)
TTITLE2=Randy Travis - For Ever and Ever, Amen
TTITLE3=Pam Tillis - Maybe It Was Memphis
TTITLE4=Hank Williams Jr - Born To Boogie
TTITLE5=John Anderson - Swingin'
TTITLE6=Nitty Gritty Dirt Band - Fishin' In The Dark
TTITLE7=Emmylou Harris - Two More Bottles Of Wine
TTITLE8=Eddie Rabbitt - I Love A Rainy Night
TTITLE9=Gary Morris - The Wind Beneath My Wings
TTITLE10=Highway 101 - The Bed You Made For Me
TTITLE11=Forester Sisters - I Fell In Love Again Last Night
TTITLE12=Southern Pacific - New Shade Of Blue
TTITLE13=Iris Dement - Our Town
EXTD=
EXTT0=
EXTT1=
EXTT2=
EXTT3=
EXTT4=
EXTT5=
EXTT6=
EXTT7=
EXTT8=
EXTT9=
EXTT10=
EXTT11=
EXTT12=
EXTT13=
PLAYORDER=
